<svg width="24" height="24" viewBox="0 0 24 24" fill="none" xmlns="http://www.w3.org/2000/svg">
<path d="M23.5861 19.8618H0.413812C0.185297 19.8618 0 19.6765 0 19.448V4.55151C0 4.32299 0.185297 4.1377 0.413812 4.1377H23.5862C23.8147 4.1377 24 4.32299 24 4.55151V19.448C24 19.6766 23.8147 19.8618 23.5861 19.8618Z" fill="#F6F8F8"/>
<path d="M24 5.3473H0V4.55151C0 4.32299 0.185297 4.1377 0.413812 4.1377H23.5862C23.8147 4.1377 24 4.32299 24 4.55151L24 5.3473Z" fill="#F35858"/>
<path d="M24 8.97607H0V10.1856H24V8.97607Z" fill="#F35858"/>
<path d="M24 6.55664H0V7.7662H24V6.55664Z" fill="#F35858"/>
<path d="M24 12.6046H0.413812C0.185297 12.6046 0 12.4193 0 12.1908V11.395H24V12.6046Z" fill="#F35858"/>
<path d="M24 16.2334H0V17.443H24V16.2334Z" fill="#F35858"/>
<path d="M23.5861 19.8619H0.413812C0.185297 19.8619 0 19.6766 0 19.4481V18.6523H24V19.4481C24 19.6767 23.8147 19.8619 23.5861 19.8619Z" fill="#F35858"/>
<path d="M24 13.8145H0V15.024H24V13.8145Z" fill="#F35858"/>
<path d="M10.7586 4.13818H0.413812C0.185297 4.13818 0 4.32343 0 4.55195V12.1912C0 12.4197 0.185297 12.605 0.413812 12.605H10.7586C10.9872 12.605 11.1724 12.4197 11.1724 12.1912V4.55195C11.1724 4.32343 10.9871 4.13818 10.7586 4.13818Z" fill="#41479B"/>
<path d="M1.16161 5.08771L1.25321 5.3624L1.54275 5.3646C1.58025 5.36493 1.59577 5.41274 1.56563 5.43501L1.33271 5.60704L1.42008 5.88308C1.43143 5.9188 1.39069 5.94843 1.36018 5.92658L1.12463 5.75826L0.889084 5.92663C0.858569 5.94843 0.817928 5.91885 0.829178 5.88313L0.916553 5.60709L0.683632 5.43505C0.653491 5.41274 0.669007 5.36498 0.706507 5.36465L0.996053 5.36245L1.08765 5.08776C1.09946 5.05213 1.14971 5.05213 1.16161 5.08771Z" fill="#F6F8F8"/>
<path d="M1.16161 6.52469L1.25321 6.79938L1.54275 6.80158C1.58025 6.80191 1.59577 6.84972 1.56563 6.87198L1.33271 7.04402L1.42008 7.32006C1.43143 7.35578 1.39069 7.3854 1.36018 7.36356L1.12463 7.19523L0.889084 7.36361C0.858569 7.38541 0.817928 7.35583 0.829178 7.32011L0.916553 7.04406L0.683632 6.87203C0.653491 6.84972 0.669007 6.80195 0.706507 6.80163L0.996053 6.79942L1.08765 6.52474C1.09946 6.48916 1.14971 6.48916 1.16161 6.52469Z" fill="#F6F8F8"/>
<path d="M1.16161 7.9617L1.25321 8.23639L1.54275 8.23859C1.58025 8.23892 1.59577 8.28673 1.56563 8.309L1.33271 8.48103L1.42008 8.75708C1.43143 8.7928 1.39069 8.82243 1.36018 8.80058L1.12463 8.63225L0.889084 8.80063C0.858569 8.82243 0.817928 8.79285 0.829178 8.75713L0.916553 8.48108L0.683632 8.30905C0.653491 8.28673 0.669007 8.23897 0.706507 8.23864L0.996053 8.23644L1.08765 7.96175C1.09946 7.92617 1.14971 7.92617 1.16161 7.9617Z" fill="#F6F8F8"/>
<path d="M1.16161 9.39826L1.25321 9.67295L1.54275 9.67515C1.58025 9.67548 1.59577 9.72329 1.56563 9.74556L1.33271 9.91759L1.42008 10.1936C1.43143 10.2294 1.39069 10.259 1.36018 10.2371L1.12463 10.0688L0.889084 10.2372C0.858569 10.259 0.817928 10.2294 0.829178 10.1937L0.916553 9.91763L0.683632 9.7456C0.653491 9.72329 0.669007 9.67553 0.706507 9.6752L0.996053 9.67299L1.08765 9.39831C1.09946 9.36268 1.14971 9.36268 1.16161 9.39826Z" fill="#F6F8F8"/>
<path d="M1.16161 10.8353L1.25321 11.11L1.54275 11.1122C1.58025 11.1125 1.59577 11.1603 1.56563 11.1826L1.33271 11.3546L1.42008 11.6307C1.43143 11.6664 1.39069 11.696 1.36018 11.6742L1.12463 11.5059L0.889084 11.6742C0.858569 11.696 0.817928 11.6665 0.829178 11.6307L0.916553 11.3547L0.683632 11.1827C0.653491 11.1603 0.669007 11.1126 0.706507 11.1122L0.996053 11.11L1.08765 10.8354C1.09946 10.7997 1.14971 10.7997 1.16161 10.8353Z" fill="#F6F8F8"/>
<path d="M2.27685 5.79227L2.36844 6.06696L2.65799 6.06916C2.69549 6.06949 2.711 6.1173 2.68086 6.13957L2.44794 6.3116L2.53532 6.58765C2.54666 6.62337 2.50593 6.65299 2.47541 6.63115L2.23986 6.46277L2.00432 6.63115C1.9738 6.65294 1.93316 6.62337 1.94441 6.58765L2.03179 6.3116L1.79887 6.13957C1.76873 6.11726 1.78424 6.06949 1.82174 6.06916L2.11129 6.06696L2.20288 5.79227C2.21465 5.75674 2.26499 5.75674 2.27685 5.79227Z" fill="#F6F8F8"/>
<path d="M2.27685 7.22932L2.36844 7.504L2.65799 7.50621C2.69549 7.50653 2.711 7.55435 2.68086 7.57661L2.44794 7.74864L2.53532 8.02468C2.54666 8.0604 2.50593 8.09003 2.47541 8.06818L2.23986 7.89981L2.00432 8.06818C1.9738 8.08998 1.93316 8.06045 1.94441 8.02468L2.03179 7.74864L1.79887 7.57661C1.76873 7.5543 1.78424 7.50653 1.82174 7.50621L2.11129 7.504L2.20288 7.22932C2.21465 7.19374 2.26499 7.19374 2.27685 7.22932Z" fill="#F6F8F8"/>
<path d="M2.27685 8.66584L2.36844 8.94053L2.65799 8.94273C2.69549 8.94306 2.711 8.99087 2.68086 9.01314L2.44794 9.18517L2.53532 9.46122C2.54666 9.49694 2.50593 9.52656 2.47541 9.50472L2.23986 9.33634L2.00432 9.50472C1.9738 9.52651 1.93316 9.49694 1.94441 9.46122L2.03179 9.18517L1.79887 9.01314C1.76873 8.99083 1.78424 8.94306 1.82174 8.94273L2.11129 8.94053L2.20288 8.66584C2.21465 8.63027 2.26499 8.63027 2.27685 8.66584Z" fill="#F6F8F8"/>
<path d="M2.27685 10.1028L2.36844 10.3775L2.65799 10.3797C2.69549 10.38 2.711 10.4279 2.68086 10.4501L2.44794 10.6221L2.53532 10.8982C2.54666 10.9339 2.50593 10.9635 2.47541 10.9417L2.23986 10.7733L2.00432 10.9417C1.9738 10.9635 1.93316 10.9339 1.94441 10.8982L2.03179 10.6221L1.79887 10.4501C1.76873 10.4278 1.78424 10.38 1.82174 10.3797L2.11129 10.3775L2.20288 10.1028C2.21465 10.0673 2.26499 10.0673 2.27685 10.1028Z" fill="#F6F8F8"/>
<path d="M3.39233 5.08772L3.48393 5.3624L3.77347 5.36461C3.81097 5.36493 3.82649 5.41275 3.79635 5.43501L3.56343 5.60704L3.6508 5.88309C3.66214 5.9188 3.62141 5.94843 3.59089 5.92659L3.35535 5.75821L3.1198 5.92659C3.08928 5.94838 3.04864 5.9188 3.05989 5.88309L3.14727 5.60704L2.91435 5.43501C2.8842 5.4127 2.89972 5.36493 2.93722 5.36461L3.22677 5.3624L3.31836 5.08772C3.33017 5.05214 3.38047 5.05214 3.39233 5.08772Z" fill="#F6F8F8"/>
<path d="M3.39233 6.5247L3.48393 6.79938L3.77347 6.80159C3.81097 6.80191 3.82649 6.84973 3.79635 6.87199L3.56343 7.04402L3.6508 7.32007C3.66214 7.35579 3.62141 7.38541 3.59089 7.36357L3.35535 7.19519L3.1198 7.36357C3.08928 7.38537 3.04864 7.35579 3.05989 7.32007L3.14727 7.04402L2.91435 6.87199C2.8842 6.84968 2.89972 6.80191 2.93722 6.80159L3.22677 6.79938L3.31836 6.5247C3.33017 6.48916 3.38047 6.48916 3.39233 6.5247Z" fill="#F6F8F8"/>
<path d="M3.39233 7.96171L3.48393 8.2364L3.77347 8.2386C3.81097 8.23893 3.82649 8.28674 3.79635 8.30901L3.56343 8.48104L3.6508 8.75709C3.66214 8.79281 3.62141 8.82244 3.59089 8.80059L3.35535 8.63222L3.1198 8.80059C3.08928 8.82239 3.04864 8.79281 3.05989 8.75709L3.14727 8.48104L2.91435 8.30901C2.8842 8.2867 2.89972 8.23893 2.93722 8.2386L3.22677 8.2364L3.31836 7.96171C3.33017 7.92618 3.38047 7.92618 3.39233 7.96171Z" fill="#F6F8F8"/>
<path d="M3.39233 9.39827L3.48393 9.67295L3.77347 9.67516C3.81097 9.67548 3.82649 9.7233 3.79635 9.74556L3.56343 9.91759L3.6508 10.1936C3.66214 10.2294 3.62141 10.259 3.59089 10.2371L3.35535 10.0688L3.1198 10.2371C3.08928 10.2589 3.04864 10.2294 3.05989 10.1936L3.14727 9.91759L2.91435 9.74556C2.8842 9.72325 2.89972 9.67548 2.93722 9.67516L3.22677 9.67295L3.31836 9.39827C3.33017 9.36269 3.38047 9.36269 3.39233 9.39827Z" fill="#F6F8F8"/>
<path d="M3.39233 10.8353L3.48393 11.11L3.77347 11.1122C3.81097 11.1125 3.82649 11.1603 3.79635 11.1826L3.56343 11.3546L3.6508 11.6307C3.66214 11.6664 3.62141 11.696 3.59089 11.6742L3.35535 11.5058L3.1198 11.6742C3.08928 11.696 3.04864 11.6664 3.05989 11.6307L3.14727 11.3546L2.91435 11.1826C2.8842 11.1603 2.89972 11.1125 2.93722 11.1122L3.22677 11.11L3.31836 10.8353C3.33017 10.7997 3.38047 10.7997 3.39233 10.8353Z" fill="#F6F8F8"/>
<path d="M4.50756 5.79227L4.59916 6.06696L4.8887 6.06916C4.9262 6.06949 4.94172 6.1173 4.91158 6.13957L4.67866 6.3116L4.76603 6.58765C4.77737 6.62337 4.73664 6.65299 4.70613 6.63115L4.47058 6.46277L4.23503 6.63115C4.20452 6.65294 4.16388 6.62337 4.17513 6.58765L4.2625 6.3116L4.02958 6.13957C3.99944 6.11726 4.01495 6.06949 4.05245 6.06916L4.342 6.06696L4.43359 5.79227C4.44536 5.75674 4.4957 5.75674 4.50756 5.79227Z" fill="#F6F8F8"/>
<path d="M4.50756 7.22932L4.59916 7.504L4.8887 7.50621C4.9262 7.50653 4.94172 7.55435 4.91158 7.57661L4.67866 7.74864L4.76603 8.02468C4.77737 8.0604 4.73664 8.09003 4.70613 8.06818L4.47058 7.89981L4.23503 8.06818C4.20452 8.08998 4.16388 8.06045 4.17513 8.02468L4.2625 7.74864L4.02958 7.57661C3.99944 7.5543 4.01495 7.50653 4.05245 7.50621L4.342 7.504L4.43359 7.22932C4.44536 7.19374 4.4957 7.19374 4.50756 7.22932Z" fill="#F6F8F8"/>
<path d="M4.50756 8.66584L4.59916 8.94053L4.8887 8.94273C4.9262 8.94306 4.94172 8.99087 4.91158 9.01314L4.67866 9.18517L4.76603 9.46122C4.77737 9.49694 4.73664 9.52656 4.70613 9.50472L4.47058 9.33634L4.23503 9.50472C4.20452 9.52651 4.16388 9.49694 4.17513 9.46122L4.2625 9.18517L4.02958 9.01314C3.99944 8.99083 4.01495 8.94306 4.05245 8.94273L4.342 8.94053L4.43359 8.66584C4.44536 8.63027 4.4957 8.63027 4.50756 8.66584Z" fill="#F6F8F8"/>
<path d="M4.50756 10.1028L4.59916 10.3775L4.8887 10.3797C4.9262 10.38 4.94172 10.4279 4.91158 10.4501L4.67866 10.6221L4.76603 10.8982C4.77737 10.9339 4.73664 10.9635 4.70613 10.9417L4.47058 10.7733L4.23503 10.9417C4.20452 10.9635 4.16388 10.9339 4.17513 10.8982L4.2625 10.6221L4.02958 10.4501C3.99944 10.4278 4.01495 10.38 4.05245 10.3797L4.342 10.3775L4.43359 10.1028C4.44536 10.0673 4.4957 10.0673 4.50756 10.1028Z" fill="#F6F8F8"/>
<path d="M5.62284 5.08772L5.71444 5.3624L6.00399 5.36461C6.04149 5.36493 6.057 5.41275 6.02686 5.43501L5.79394 5.60704L5.88131 5.88309C5.89266 5.9188 5.85192 5.94843 5.82141 5.92659L5.58581 5.75821L5.35027 5.92659C5.31975 5.94838 5.27911 5.9188 5.29036 5.88309L5.37774 5.60704L5.14481 5.43501C5.11467 5.4127 5.13019 5.36493 5.16769 5.36461L5.45724 5.3624L5.54883 5.08772C5.56069 5.05214 5.61099 5.05214 5.62284 5.08772Z" fill="#F6F8F8"/>
<path d="M5.62284 6.5247L5.71444 6.79938L6.00399 6.80159C6.04149 6.80191 6.057 6.84973 6.02686 6.87199L5.79394 7.04402L5.88131 7.32007C5.89266 7.35579 5.85192 7.38541 5.82141 7.36357L5.58581 7.19519L5.35027 7.36357C5.31975 7.38537 5.27911 7.35579 5.29036 7.32007L5.37774 7.04402L5.14481 6.87199C5.11467 6.84968 5.13019 6.80191 5.16769 6.80159L5.45724 6.79938L5.54883 6.5247C5.56069 6.48916 5.61099 6.48916 5.62284 6.5247Z" fill="#F6F8F8"/>
<path d="M5.62284 7.96171L5.71444 8.2364L6.00399 8.2386C6.04149 8.23893 6.057 8.28674 6.02686 8.30901L5.79394 8.48104L5.88131 8.75709C5.89266 8.79281 5.85192 8.82244 5.82141 8.80059L5.58581 8.63222L5.35027 8.80059C5.31975 8.82239 5.27911 8.79281 5.29036 8.75709L5.37774 8.48104L5.14481 8.30901C5.11467 8.2867 5.13019 8.23893 5.16769 8.2386L5.45724 8.2364L5.54883 7.96171C5.56069 7.92618 5.61099 7.92618 5.62284 7.96171Z" fill="#F6F8F8"/>
<path d="M5.62284 9.39827L5.71444 9.67295L6.00399 9.67516C6.04149 9.67548 6.057 9.7233 6.02686 9.74556L5.79394 9.91759L5.88131 10.1936C5.89266 10.2294 5.85192 10.259 5.82141 10.2371L5.58581 10.0688L5.35027 10.2371C5.31975 10.2589 5.27911 10.2294 5.29036 10.1936L5.37774 9.91759L5.14481 9.74556C5.11467 9.72325 5.13019 9.67548 5.16769 9.67516L5.45724 9.67295L5.54883 9.39827C5.56069 9.36269 5.61099 9.36269 5.62284 9.39827Z" fill="#F6F8F8"/>
<path d="M5.62284 10.8353L5.71444 11.11L6.00399 11.1122C6.04149 11.1125 6.057 11.1603 6.02686 11.1826L5.79394 11.3546L5.88131 11.6307C5.89266 11.6664 5.85192 11.696 5.82141 11.6742L5.58581 11.5058L5.35027 11.6742C5.31975 11.696 5.27911 11.6664 5.29036 11.6307L5.37774 11.3546L5.14481 11.1826C5.11467 11.1603 5.13019 11.1125 5.16769 11.1122L5.45724 11.11L5.54883 10.8353C5.56069 10.7997 5.61099 10.7997 5.62284 10.8353Z" fill="#F6F8F8"/>
<path d="M6.73828 5.79227L6.82987 6.06696L7.11942 6.06916C7.15692 6.06949 7.17244 6.1173 7.1423 6.13957L6.90937 6.3116L6.99675 6.58765C7.00809 6.62337 6.96736 6.65299 6.93684 6.63115L6.7013 6.46277L6.46575 6.63115C6.43523 6.65294 6.39459 6.62337 6.40584 6.58765L6.49322 6.3116L6.26029 6.13957C6.23015 6.11726 6.24567 6.06949 6.28317 6.06916L6.57272 6.06696L6.66431 5.79227C6.67617 5.75674 6.72642 5.75674 6.73828 5.79227Z" fill="#F6F8F8"/>
<path d="M6.73828 7.22932L6.82987 7.504L7.11942 7.50621C7.15692 7.50653 7.17244 7.55435 7.1423 7.57661L6.90937 7.74864L6.99675 8.02468C7.00809 8.0604 6.96736 8.09003 6.93684 8.06818L6.7013 7.89981L6.46575 8.06818C6.43523 8.08998 6.39459 8.06045 6.40584 8.02468L6.49322 7.74864L6.26029 7.57661C6.23015 7.5543 6.24567 7.50653 6.28317 7.50621L6.57272 7.504L6.66431 7.22932C6.67617 7.19374 6.72642 7.19374 6.73828 7.22932Z" fill="#F6F8F8"/>
<path d="M6.73828 8.66584L6.82987 8.94053L7.11942 8.94273C7.15692 8.94306 7.17244 8.99087 7.1423 9.01314L6.90937 9.18517L6.99675 9.46122C7.00809 9.49694 6.96736 9.52656 6.93684 9.50472L6.7013 9.33634L6.46575 9.50472C6.43523 9.52651 6.39459 9.49694 6.40584 9.46122L6.49322 9.18517L6.26029 9.01314C6.23015 8.99083 6.24567 8.94306 6.28317 8.94273L6.57272 8.94053L6.66431 8.66584C6.67617 8.63027 6.72642 8.63027 6.73828 8.66584Z" fill="#F6F8F8"/>
<path d="M6.73828 10.1028L6.82987 10.3775L7.11942 10.3797C7.15692 10.38 7.17244 10.4279 7.1423 10.4501L6.90937 10.6221L6.99675 10.8982C7.00809 10.9339 6.96736 10.9635 6.93684 10.9417L6.7013 10.7733L6.46575 10.9417C6.43523 10.9635 6.39459 10.9339 6.40584 10.8982L6.49322 10.6221L6.26029 10.4501C6.23015 10.4278 6.24567 10.38 6.28317 10.3797L6.57272 10.3775L6.66431 10.1028C6.67617 10.0673 6.72642 10.0673 6.73828 10.1028Z" fill="#F6F8F8"/>
<path d="M7.85376 5.08772L7.94535 5.3624L8.2349 5.36461C8.2724 5.36493 8.28792 5.41275 8.25778 5.43501L8.02485 5.60704L8.11223 5.88309C8.12357 5.9188 8.08284 5.94843 8.05232 5.92659L7.81677 5.75821L7.58123 5.92659C7.55071 5.94838 7.51007 5.9188 7.52132 5.88309L7.60869 5.60704L7.37577 5.43501C7.34563 5.4127 7.36115 5.36493 7.39865 5.36461L7.68819 5.3624L7.77979 5.08772C7.79155 5.05214 7.8419 5.05214 7.85376 5.08772Z" fill="#F6F8F8"/>
<path d="M7.85376 6.5247L7.94535 6.79938L8.2349 6.80159C8.2724 6.80191 8.28792 6.84973 8.25778 6.87199L8.02485 7.04402L8.11223 7.32007C8.12357 7.35579 8.08284 7.38541 8.05232 7.36357L7.81677 7.19519L7.58123 7.36357C7.55071 7.38537 7.51007 7.35579 7.52132 7.32007L7.60869 7.04402L7.37577 6.87199C7.34563 6.84968 7.36115 6.80191 7.39865 6.80159L7.68819 6.79938L7.77979 6.5247C7.79155 6.48916 7.8419 6.48916 7.85376 6.5247Z" fill="#F6F8F8"/>
<path d="M7.85376 7.96171L7.94535 8.2364L8.2349 8.2386C8.2724 8.23893 8.28792 8.28674 8.25778 8.30901L8.02485 8.48104L8.11223 8.75709C8.12357 8.79281 8.08284 8.82244 8.05232 8.80059L7.81677 8.63222L7.58123 8.80059C7.55071 8.82239 7.51007 8.79281 7.52132 8.75709L7.60869 8.48104L7.37577 8.30901C7.34563 8.2867 7.36115 8.23893 7.39865 8.2386L7.68819 8.2364L7.77979 7.96171C7.79155 7.92618 7.8419 7.92618 7.85376 7.96171Z" fill="#F6F8F8"/>
<path d="M7.85376 9.39827L7.94535 9.67295L8.2349 9.67516C8.2724 9.67548 8.28792 9.7233 8.25778 9.74556L8.02485 9.91759L8.11223 10.1936C8.12357 10.2294 8.08284 10.259 8.05232 10.2371L7.81677 10.0688L7.58123 10.2371C7.55071 10.2589 7.51007 10.2294 7.52132 10.1936L7.60869 9.91759L7.37577 9.74556C7.34563 9.72325 7.36115 9.67548 7.39865 9.67516L7.68819 9.67295L7.77979 9.39827C7.79155 9.36269 7.8419 9.36269 7.85376 9.39827Z" fill="#F6F8F8"/>
<path d="M7.85376 10.8353L7.94535 11.11L8.2349 11.1122C8.2724 11.1125 8.28792 11.1603 8.25778 11.1826L8.02485 11.3546L8.11223 11.6307C8.12357 11.6664 8.08284 11.696 8.05232 11.6742L7.81677 11.5058L7.58123 11.6742C7.55071 11.696 7.51007 11.6664 7.52132 11.6307L7.60869 11.3546L7.37577 11.1826C7.34563 11.1603 7.36115 11.1125 7.39865 11.1122L7.68819 11.11L7.77979 10.8353C7.79155 10.7997 7.8419 10.7997 7.85376 10.8353Z" fill="#F6F8F8"/>
<path d="M8.96899 5.79227L9.06058 6.06696L9.35013 6.06916C9.38763 6.06949 9.40314 6.1173 9.373 6.13957L9.14008 6.3116L9.22745 6.58765C9.2388 6.62337 9.19806 6.65299 9.16755 6.63115L8.932 6.46277L8.69646 6.63115C8.66594 6.65294 8.6253 6.62337 8.63655 6.58765L8.72393 6.3116L8.49101 6.13957C8.46086 6.11726 8.47638 6.06949 8.51388 6.06916L8.80342 6.06696L8.89502 5.79227C8.90683 5.75674 8.95717 5.75674 8.96899 5.79227Z" fill="#F6F8F8"/>
<path d="M8.96899 7.22932L9.06058 7.504L9.35013 7.50621C9.38763 7.50653 9.40314 7.55435 9.373 7.57661L9.14008 7.74864L9.22745 8.02468C9.2388 8.0604 9.19806 8.09003 9.16755 8.06818L8.932 7.89981L8.69646 8.06818C8.66594 8.08998 8.6253 8.06045 8.63655 8.02468L8.72393 7.74864L8.49101 7.57661C8.46086 7.5543 8.47638 7.50653 8.51388 7.50621L8.80342 7.504L8.89502 7.22932C8.90683 7.19374 8.95717 7.19374 8.96899 7.22932Z" fill="#F6F8F8"/>
<path d="M8.96899 8.66584L9.06058 8.94053L9.35013 8.94273C9.38763 8.94306 9.40314 8.99087 9.373 9.01314L9.14008 9.18517L9.22745 9.46122C9.2388 9.49694 9.19806 9.52656 9.16755 9.50472L8.932 9.33634L8.69646 9.50472C8.66594 9.52651 8.6253 9.49694 8.63655 9.46122L8.72393 9.18517L8.49101 9.01314C8.46086 8.99083 8.47638 8.94306 8.51388 8.94273L8.80342 8.94053L8.89502 8.66584C8.90683 8.63027 8.95717 8.63027 8.96899 8.66584Z" fill="#F6F8F8"/>
<path d="M8.96899 10.1028L9.06058 10.3775L9.35013 10.3797C9.38763 10.38 9.40314 10.4279 9.373 10.4501L9.14008 10.6221L9.22745 10.8982C9.2388 10.9339 9.19806 10.9635 9.16755 10.9417L8.932 10.7733L8.69646 10.9417C8.66594 10.9635 8.6253 10.9339 8.63655 10.8982L8.72393 10.6221L8.49101 10.4501C8.46086 10.4278 8.47638 10.38 8.51388 10.3797L8.80342 10.3775L8.89502 10.1028C8.90683 10.0673 8.95717 10.0673 8.96899 10.1028Z" fill="#F6F8F8"/>
<path d="M10.0845 5.08772L10.1761 5.3624L10.4656 5.36461C10.5031 5.36493 10.5186 5.41275 10.4885 5.43501L10.2556 5.60704L10.3429 5.88309C10.3543 5.9188 10.3135 5.94843 10.283 5.92659L10.0475 5.75821L9.81194 5.92659C9.78142 5.94838 9.74078 5.9188 9.75203 5.88309L9.83941 5.60704L9.60648 5.43501C9.57634 5.4127 9.59186 5.36493 9.62936 5.36461L9.91891 5.3624L10.0105 5.08772C10.0223 5.05214 10.0726 5.05214 10.0845 5.08772Z" fill="#F6F8F8"/>
<path d="M10.0845 6.5247L10.1761 6.79938L10.4656 6.80159C10.5031 6.80191 10.5186 6.84973 10.4885 6.87199L10.2556 7.04402L10.3429 7.32007C10.3543 7.35579 10.3135 7.38541 10.283 7.36357L10.0475 7.19519L9.81194 7.36357C9.78142 7.38537 9.74078 7.35579 9.75203 7.32007L9.83941 7.04402L9.60648 6.87199C9.57634 6.84968 9.59186 6.80191 9.62936 6.80159L9.91891 6.79938L10.0105 6.5247C10.0223 6.48916 10.0726 6.48916 10.0845 6.5247Z" fill="#F6F8F8"/>
<path d="M10.0845 7.96171L10.1761 8.2364L10.4656 8.2386C10.5031 8.23893 10.5186 8.28674 10.4885 8.30901L10.2556 8.48104L10.3429 8.75709C10.3543 8.79281 10.3135 8.82244 10.283 8.80059L10.0475 8.63222L9.81194 8.80059C9.78142 8.82239 9.74078 8.79281 9.75203 8.75709L9.83941 8.48104L9.60648 8.30901C9.57634 8.2867 9.59186 8.23893 9.62936 8.2386L9.91891 8.2364L10.0105 7.96171C10.0223 7.92618 10.0726 7.92618 10.0845 7.96171Z" fill="#F6F8F8"/>
<path d="M10.0845 9.39827L10.1761 9.67295L10.4656 9.67516C10.5031 9.67548 10.5186 9.7233 10.4885 9.74556L10.2556 9.91759L10.3429 10.1936C10.3543 10.2294 10.3135 10.259 10.283 10.2371L10.0475 10.0688L9.81194 10.2371C9.78142 10.2589 9.74078 10.2294 9.75203 10.1936L9.83941 9.91759L9.60648 9.74556C9.57634 9.72325 9.59186 9.67548 9.62936 9.67516L9.91891 9.67295L10.0105 9.39827C10.0223 9.36269 10.0726 9.36269 10.0845 9.39827Z" fill="#F6F8F8"/>
<path d="M10.0845 10.8353L10.1761 11.11L10.4656 11.1122C10.5031 11.1125 10.5186 11.1603 10.4885 11.1826L10.2556 11.3546L10.3429 11.6307C10.3543 11.6664 10.3135 11.696 10.283 11.6742L10.0475 11.5058L9.81194 11.6742C9.78142 11.696 9.74078 11.6664 9.75203 11.6307L9.83941 11.3546L9.60648 11.1826C9.57634 11.1603 9.59186 11.1125 9.62936 11.1122L9.91891 11.11L10.0105 10.8353C10.0223 10.7997 10.0726 10.7997 10.0845 10.8353Z" fill="#F6F8F8"/>
</svg>
