<svg width="24" height="24" viewBox="0 0 24 24" fill="none" xmlns="http://www.w3.org/2000/svg">
<path d="M0.413812 19.8618H23.5862C23.8147 19.8618 24 19.6765 24 19.448V4.55151C24 4.32299 23.8147 4.1377 23.5862 4.1377H0.413812C0.185297 4.13774 0 4.32299 0 4.55151V19.448C0 19.6766 0.185297 19.8618 0.413812 19.8618Z" fill="#C8414B"/>
<path d="M24 7.44824H0V16.5518H24V7.44824Z" fill="#FFD250"/>
<path d="M10.138 11.9998L10.4888 10.421C10.5212 10.2756 10.4105 10.1377 10.2615 10.1377H10.0144C9.86549 10.1377 9.75486 10.2756 9.78711 10.421L10.138 11.9998Z" fill="#C8414B"/>
<path d="M10.5517 11.1724H9.72412V14.6894H10.5517V11.1724Z" fill="#F6F8F8"/>
<path d="M10.7585 10.7588H9.51709V11.1726H10.7585V10.7588Z" fill="#FAB446"/>
<path d="M10.7588 12H8.6897V12.4138H10.7588V12Z" fill="#C8414B"/>
<path d="M10.7585 13.6547L9.51709 13.241V12.8271L10.7585 13.241V13.6547Z" fill="#C8414B"/>
<path d="M3.93094 11.9998L4.2818 10.421C4.31415 10.2756 4.20347 10.1377 4.05451 10.1377H3.80738C3.65846 10.1377 3.54783 10.2756 3.58008 10.421L3.93094 11.9998Z" fill="#C8414B"/>
<path d="M5.37939 10.7588C5.15087 10.7588 4.96558 10.9441 4.96558 11.1726V13.8622C4.96558 14.365 5.43479 15.3105 7.03454 15.3105C8.63429 15.3105 9.10351 14.365 9.10351 13.8622V11.1726C9.10351 10.9441 8.91821 10.7588 8.68969 10.7588H5.37939Z" fill="#F6F8F8"/>
<path d="M7.03454 12.8278H4.96558V11.1726C4.96558 10.9441 5.15087 10.7588 5.37939 10.7588H7.03454V12.8278Z" fill="#C8414B"/>
<path d="M7.03467 12.8276H9.10363V13.8621C9.10363 14.4335 8.64051 14.8966 8.06915 14.8966C7.49779 14.8966 7.03467 14.4335 7.03467 13.8621V12.8276Z" fill="#C8414B"/>
<path d="M4.96558 12.8276H7.03454V13.8621C7.03454 14.4335 6.57142 14.8966 6.00006 14.8966C5.4287 14.8966 4.96558 14.4335 4.96558 13.8621V12.8276Z" fill="#FAB446"/>
<path d="M6.6206 14.6851V12.8276H6.20679V14.8757C6.36072 14.8445 6.4998 14.7764 6.6206 14.6851Z" fill="#C8414B"/>
<path d="M5.79296 14.8757V12.8276H5.37915V14.6851C5.49999 14.7764 5.63907 14.8445 5.79296 14.8757Z" fill="#C8414B"/>
<path d="M6.62078 12H5.37939V12.4138H6.62078V12Z" fill="#FFB441"/>
<path d="M6.62078 11.1724H5.37939V11.5862H6.62078V11.1724Z" fill="#FAB446"/>
<path d="M6.41376 11.4185H5.58618V12.1681H6.41376V11.4185Z" fill="#FAB446"/>
<path d="M4.34467 11.1724H3.51709V14.6894H4.34467V11.1724Z" fill="#F6F8F8"/>
<path d="M4.55169 14.4829H3.3103V14.8967H4.55169V14.4829Z" fill="#FAB446"/>
<path d="M4.55169 10.7588H3.3103V11.1726H4.55169V10.7588Z" fill="#FAB446"/>
<path d="M4.75867 14.8965H3.10352V15.3103H4.75867V14.8965Z" fill="#5064AA"/>
<path d="M10.9655 14.4829H9.72412V14.8967H10.9655V14.4829Z" fill="#FAB446"/>
<path d="M10.9652 14.8965H9.31006V15.3103H10.9652V14.8965Z" fill="#5064AA"/>
<path d="M8.27599 10.3447H5.79321V10.7585H8.27599V10.3447Z" fill="#FAB446"/>
<path d="M7.24169 9.10352H6.82788V10.3449H7.24169V9.10352Z" fill="#FFB441"/>
<path d="M6.62067 9.72425C6.27839 9.72425 6 9.44581 6 9.10358C6 8.7613 6.27844 8.48291 6.62067 8.48291C6.96295 8.48291 7.24134 8.76135 7.24134 9.10358C7.24139 9.44581 6.96295 9.72425 6.62067 9.72425ZM6.62067 8.89668C6.50653 8.89668 6.41376 8.98939 6.41376 9.10358C6.41376 9.21772 6.50648 9.31049 6.62067 9.31049C6.73486 9.31049 6.82758 9.21777 6.82758 9.10358C6.82758 8.98944 6.73486 8.89668 6.62067 8.89668Z" fill="#F6F8F8"/>
<path d="M7.44831 9.72425C7.10603 9.72425 6.82764 9.44581 6.82764 9.10358C6.82764 8.7613 7.10607 8.48291 7.44831 8.48291C7.79059 8.48291 8.06898 8.76135 8.06898 9.10358C8.06898 9.44581 7.79054 9.72425 7.44831 9.72425ZM7.44831 8.89668C7.33417 8.89668 7.2414 8.98939 7.2414 9.10358C7.2414 9.21772 7.33412 9.31049 7.44831 9.31049C7.56245 9.31049 7.65521 9.21777 7.65521 9.10358C7.65517 8.98944 7.56245 8.89668 7.44831 8.89668Z" fill="#F6F8F8"/>
<path d="M8.2757 10.1378C7.93342 10.1378 7.65503 9.85939 7.65503 9.51716C7.65503 9.17487 7.93347 8.89648 8.2757 8.89648C8.61798 8.89648 8.89637 9.17492 8.89637 9.51716C8.89637 9.85939 8.61793 10.1378 8.2757 10.1378ZM8.2757 9.31025C8.16156 9.31025 8.06879 9.40297 8.06879 9.51716C8.06879 9.6313 8.16151 9.72406 8.2757 9.72406C8.38984 9.72406 8.48261 9.63134 8.48261 9.51716C8.48261 9.40297 8.38984 9.31025 8.2757 9.31025Z" fill="#F6F8F8"/>
<path d="M5.79303 10.1378C5.45075 10.1378 5.17236 9.85939 5.17236 9.51716C5.17236 9.17487 5.4508 8.89648 5.79303 8.89648C6.13531 8.89648 6.4137 9.17492 6.4137 9.51716C6.41375 9.85939 6.13531 10.1378 5.79303 10.1378ZM5.79303 9.31025C5.67889 9.31025 5.58613 9.40297 5.58613 9.51716C5.58613 9.6313 5.67885 9.72406 5.79303 9.72406C5.90722 9.72406 5.99994 9.6313 5.99994 9.51711C5.99994 9.40297 5.90722 9.31025 5.79303 9.31025Z" fill="#F6F8F8"/>
<path d="M8.27587 13.655V13.8619C8.27587 13.976 8.18305 14.0688 8.06896 14.0688C7.95487 14.0688 7.86205 13.976 7.86205 13.8619V13.655H8.27587ZM8.68963 13.2412H7.44824V13.8619C7.44824 14.2042 7.72668 14.4826 8.06891 14.4826C8.41119 14.4826 8.68958 14.2041 8.68958 13.8619V13.2412H8.68963Z" fill="#FAB446"/>
<path d="M8.06884 12.4138C7.84033 12.4138 7.65503 12.2285 7.65503 12V11.5862C7.65503 11.3577 7.84033 11.1724 8.06884 11.1724C8.29736 11.1724 8.48265 11.3577 8.48265 11.5862V12C8.48265 12.2285 8.29736 12.4138 8.06884 12.4138Z" fill="#FFA0D2"/>
<path d="M7.03449 13.4479C7.37728 13.4479 7.65516 13.17 7.65516 12.8272C7.65516 12.4844 7.37728 12.2065 7.03449 12.2065C6.6917 12.2065 6.41382 12.4844 6.41382 12.8272C6.41382 13.17 6.6917 13.4479 7.03449 13.4479Z" fill="#5064AA"/>
<path d="M7.24169 8.27588H6.82788V9.51727H7.24169V8.27588Z" fill="#FAB446"/>
<path d="M5.79296 10.3449L5.37915 9.93109L5.62154 9.6887C5.99621 9.31403 6.50443 9.10352 7.03435 9.10352C7.56428 9.10352 8.07245 9.31403 8.44717 9.6887L8.68956 9.93109L8.27575 10.3449H5.79296Z" fill="#C8414B"/>
<path d="M7.03454 10.1379C7.14881 10.1379 7.24145 10.0453 7.24145 9.93103C7.24145 9.81676 7.14881 9.72412 7.03454 9.72412C6.92027 9.72412 6.82764 9.81676 6.82764 9.93103C6.82764 10.0453 6.92027 10.1379 7.03454 10.1379Z" fill="#FFD250"/>
<path d="M6.20666 10.1379C6.32093 10.1379 6.41357 10.0453 6.41357 9.93103C6.41357 9.81676 6.32093 9.72412 6.20666 9.72412C6.09239 9.72412 5.99976 9.81676 5.99976 9.93103C5.99976 10.0453 6.09239 10.1379 6.20666 10.1379Z" fill="#FFD250"/>
<path d="M7.86169 10.1379C7.97596 10.1379 8.0686 10.0453 8.0686 9.93103C8.0686 9.81676 7.97596 9.72412 7.86169 9.72412C7.74742 9.72412 7.65479 9.81676 7.65479 9.93103C7.65479 10.0453 7.74742 10.1379 7.86169 10.1379Z" fill="#FFD250"/>
<path d="M5.37936 12H3.3103V12.4138H5.37936V12Z" fill="#C8414B"/>
<path d="M3.3103 13.6552L4.55164 13.2414V12.8276L3.3103 13.2414V13.6552Z" fill="#C8414B"/>
</svg>
