<svg width="191" height="40" viewBox="0 0 191 40" fill="none" xmlns="http://www.w3.org/2000/svg">
<path d="M151.684 38.4238V12.4493H157.605V15.7557C159.098 13.0891 162.351 11.7022 165.285 11.7022C168.699 11.7022 171.686 13.2491 173.072 16.2895C175.1 12.8753 178.139 11.7022 181.5 11.7022C186.193 11.7022 190.674 14.6893 190.674 21.57V38.4238H184.7V22.5825C184.7 19.5426 183.153 17.2493 179.686 17.2493C176.433 17.2493 174.299 19.8098 174.299 23.0102V38.4238H168.219V22.5825C168.219 19.596 166.725 17.2493 163.205 17.2493C159.899 17.2493 157.818 19.7026 157.818 23.0102V38.4238H151.684ZM139.522 22.5825C139.415 19.5426 137.389 16.8233 133.121 16.8233C129.228 16.8233 126.988 19.8098 126.775 22.5825H139.522ZM145.442 31.01C144.055 35.5434 139.949 39.2236 133.708 39.2236C126.668 39.2236 120.428 34.1043 120.428 25.3036C120.428 17.0893 126.508 11.6495 133.068 11.6495C141.068 11.6495 145.763 16.9294 145.763 25.1436C145.763 26.1567 145.656 27.0098 145.602 27.1164H126.614C126.775 31.0645 129.868 33.8905 133.708 33.8905C137.442 33.8905 139.362 31.9176 140.215 29.3565L145.442 31.01ZM110.292 22.5825C110.185 19.5426 108.159 16.8233 103.891 16.8233C99.9977 16.8233 97.7577 19.8098 97.5444 22.5825H110.292ZM116.212 31.01C114.825 35.5434 110.719 39.2236 104.478 39.2236C97.4377 39.2236 91.1975 34.1043 91.1975 25.3036C91.1975 17.0893 97.2778 11.6495 103.838 11.6495C111.838 11.6495 116.532 16.9294 116.532 25.1436C116.532 26.1567 116.426 27.0098 116.372 27.1164H97.3844C97.5444 31.0645 100.638 33.8905 104.478 33.8905C108.212 33.8905 110.132 31.9176 110.985 29.3565L116.212 31.01ZM88.3164 18.5829C87.6227 18.4762 86.9295 18.4229 86.2891 18.4229C81.4891 18.4229 79.3024 21.1955 79.3024 26.05V38.4238H73.1149V12.4493H79.1418V16.6088C80.3688 13.7829 83.2493 12.1288 86.6629 12.1288C87.4094 12.1288 88.0492 12.236 88.3164 12.2893V18.5829ZM52.3657 33.7838C56.4192 33.7838 59.2463 30.3174 59.2463 25.3036C59.2463 20.2891 56.4725 17.0893 52.3657 17.0893C48.2055 17.0893 45.3257 20.2891 45.3257 25.3036C45.3257 30.2629 48.045 33.7838 52.3657 33.7838ZM51.6725 39.1176C44.0454 39.1176 39.1382 33.0901 39.1382 25.3036C39.1382 17.7831 44.0987 11.7022 51.5659 11.7022C56.1526 11.7022 58.4993 14.1022 59.193 15.8624V12.4493H65.22V33.6772C65.22 35.8112 65.4326 37.8912 65.4859 38.4238H59.5663C59.4596 37.8367 59.2991 36.451 59.2991 34.6903C58.126 37.1981 55.4061 39.1176 51.6725 39.1176Z" fill="#3AB54E"/>
<path d="M9.63275 1.81192C11.8728 1.81192 13.6869 3.626 13.6869 5.86603C13.6869 8.10666 11.8728 9.86621 9.63275 9.86621C7.44604 9.86621 5.63257 8.10666 5.63257 5.86603C5.63257 3.626 7.44604 1.81192 9.63275 1.81192Z" fill="#3AB54E"/>
<path d="M19.0089 33.0869C13.3419 33.0869 7.96444 29.4678 6.73567 22.5926H0.108887C1.45339 33.0645 9.6943 39.2217 19.0089 39.2217C28.6634 39.2217 34.4231 33.0869 36.1305 26.6861L30.263 24.7654C28.9827 29.0328 25.3563 33.0869 19.0089 33.0869Z" fill="#3AB54E"/>
<path d="M34.6555 8.61238C32.5566 4.53645 28.6891 1.26336 23.0827 0.184239L21.6733 6.0809C25.5542 6.83162 28.0511 9.20737 29.3247 12.2314L34.6555 8.61238Z" fill="#3AB54E"/>
</svg>
