<svg width="96" height="22" viewBox="0 0 96 22" fill="none" xmlns="http://www.w3.org/2000/svg">
<path d="M0.581055 0.741823H1.54143C2.39849 0.741823 3.09327 1.4366 3.09327 2.29366V21.1386H2.13289C1.27584 21.1386 0.581055 20.4439 0.581055 19.5868V0.741823Z" fill="white"/>
<path d="M6.9979 0.741823H7.72261C8.7641 0.741823 9.73616 1.26419 10.3109 2.13273L20.0973 16.9217H20.1571C20.1173 16.3435 20.0873 15.7254 20.0674 15.0674C20.0275 14.5092 19.9976 13.8711 19.9777 13.1534C19.9777 12.4157 19.9777 11.668 19.9777 10.9103V0.741823H20.8184C21.6755 0.741823 22.3703 1.4366 22.3703 2.29366V21.1386H21.649C20.6056 21.1386 19.6321 20.6144 19.0578 19.7433L9.27085 4.89894H9.21104C9.23098 5.49709 9.26089 6.12515 9.30076 6.78311C9.3207 7.36132 9.34064 8.00931 9.36058 8.72709C9.38052 9.44486 9.39048 10.1826 9.39048 10.9402V21.1386H8.54973C7.69268 21.1386 6.9979 20.4439 6.9979 19.5868V0.741823Z" fill="white"/>
<path d="M26.5821 2.29366C26.5821 1.43661 27.2769 0.741823 28.1339 0.741823H39.0834V1.49285C39.0834 2.34991 38.3886 3.04469 37.5315 3.04469H29.0943V9.56449H38.3656V10.2557C38.3656 11.1128 37.6708 11.8075 36.8137 11.8075H29.0943V21.1386H28.1339C27.2769 21.1386 26.5821 20.4439 26.5821 19.5868V2.29366Z" fill="white"/>
<path d="M42.2301 0.741823H43.1904C44.0475 0.741823 44.7423 1.4366 44.7423 2.29366V21.1386H43.7819C42.9249 21.1386 42.2301 20.4439 42.2301 19.5868V0.741823Z" fill="white"/>
<path d="M58.6181 10.9402C58.6181 9.00622 58.9172 7.37129 59.5154 6.03542C60.1334 4.69956 60.911 3.6229 61.8481 2.80543C62.8052 1.98796 63.8619 1.39978 65.0183 1.0409C66.1947 0.662069 67.3411 0.472656 68.4576 0.472656C69.5742 0.472656 70.7107 0.632162 71.8671 0.951175C73.0435 1.25025 74.1002 1.79855 75.0373 2.59608C75.9943 3.37367 76.7719 4.44037 77.3701 5.79617C77.9881 7.15197 78.2972 8.87662 78.2972 10.9701C78.2972 12.9241 77.9881 14.569 77.3701 15.9049C76.7719 17.2407 75.9943 18.3273 75.0373 19.1648C74.1002 20.0022 73.0435 20.6103 71.8671 20.9891C70.7107 21.348 69.5742 21.5274 68.4576 21.5274C67.3411 21.5274 66.1947 21.348 65.0183 20.9891C63.8619 20.6302 62.8052 20.042 61.8481 19.2246C60.911 18.4071 60.1334 17.3205 59.5154 15.9647C58.9172 14.6089 58.6181 12.9341 58.6181 10.9402ZM75.456 11.0898C75.456 8.3981 74.8279 6.35444 73.5718 4.95876C72.3357 3.56308 70.6708 2.86525 68.5773 2.86525C67.5206 2.86525 66.5536 3.03472 65.6763 3.37367C64.8189 3.69268 64.0712 4.18117 63.4332 4.83913C62.8151 5.49709 62.3266 6.32453 61.9678 7.32144C61.6288 8.29841 61.4593 9.45483 61.4593 10.7907C61.4593 13.4824 62.0774 15.546 63.3136 16.9815C64.5697 18.4171 66.2445 19.1348 68.338 19.1348C69.3748 19.1348 70.3319 18.9753 71.2092 18.6563C72.0864 18.3174 72.8341 17.809 73.4522 17.1311C74.0902 16.4532 74.5787 15.6157 74.9177 14.6188C75.2765 13.6219 75.456 12.4456 75.456 11.0898Z" fill="white"/>
<path d="M53.0291 0.781263C53.8862 0.781263 54.581 1.47605 54.581 2.3331V14.8078C54.581 15.9842 54.6046 16.9655 54.1572 18.0494C53.5818 19.4435 52.7211 20.4921 51.2014 20.9359C50.7328 21.0727 50.2682 21.1056 49.8497 21.0857C48.8025 21.0358 48.1269 20.0919 48.0013 19.0512C48.9612 19.1468 49.6411 19.1969 50.5029 18.746C51.3648 18.295 51.7641 17.5554 51.9285 16.9047C52.0687 16.3496 52.0687 15.4757 52.0687 14.7779C52.0687 14.0801 52.0687 0.781263 52.0687 0.781263H53.0291Z" fill="white"/>
<path d="M86.1882 19.5773L86.2154 13.7589L79.6799 0.781307H80.5152C81.7053 0.781307 82.7906 1.46185 83.309 2.53314L87.3655 10.9167C87.4182 10.9886 87.5299 10.9856 87.5779 10.9084L91.6304 2.53315C92.1488 1.46185 93.2341 0.781313 94.4242 0.781313H95.2595L88.7397 13.7589L88.7407 21.1291H87.74C86.8829 21.1291 86.1882 20.4343 86.1882 19.5773Z" fill="white"/>
</svg>
