<?xml version="1.0" encoding="utf-8"?><svg viewBox="0 0 33 33" xmlns="http://www.w3.org/2000/svg" xmlns:xlink="http://www.w3.org/1999/xlink"><style>:root>svg{display:none}:root>svg:target{display:block}</style><svg fill="currentColor" viewBox="0 0 12 8" id="angle-down" xmlns="http://www.w3.org/2000/svg"><path d="M5.646 4.818a.5.5 0 00.708 0l3.889-3.89a1 1 0 111.414 1.415l-4.95 4.95a1 1 0 01-1.414 0l-4.95-4.95A1 1 0 011.757.929l3.89 3.89z"/></svg><svg fill="none" viewBox="0 0 12 20" id="angle-right" xmlns="http://www.w3.org/2000/svg"><path d="M.23 18.23L2 20l10-10L2 0 .23 1.77 8.46 10 .23 18.23z" fill="#110F19"/></svg><svg fill="none" viewBox="0 0 24 24" id="close" xmlns="http://www.w3.org/2000/svg"><g clip-path="url(#cclip0_4981_70879)"><path d="M19 6.41L17.59 5 12 10.59 6.41 5 5 6.41 10.59 12 5 17.59 6.41 19 12 13.41 17.59 19 19 17.59 13.41 12 19 6.41z" fill="#fff"/></g><defs><clipPath id="cclip0_4981_70879"><path fill="#fff" d="M0 0h24v24H0z"/></clipPath></defs></svg><svg fill="none" viewBox="0 0 33 33" id="facebook" xmlns="http://www.w3.org/2000/svg"><path fill-rule="evenodd" clip-rule="evenodd" d="M7.208 0A7.208 7.208 0 000 7.208v18.584A7.208 7.208 0 007.208 33h18.584A7.208 7.208 0 0033 25.792V7.208A7.208 7.208 0 0025.792 0H7.208zm13.8 14.587l-.47 2.987H18.11V24.8h-3.258v-7.226H12.21v-2.987h2.643v-2.278c0-2.59 1.556-4.024 3.94-4.024.787.01 1.573.077 2.35.201v2.544h-1.335c-1.293 0-1.697.798-1.697 1.615v1.942h2.896z" fill="#A8B7F0"/></svg><svg fill="none" viewBox="0 0 33 33" id="in" xmlns="http://www.w3.org/2000/svg"><path fill-rule="evenodd" clip-rule="evenodd" d="M7.208 0A7.208 7.208 0 000 7.208v18.584A7.208 7.208 0 007.208 33h18.584A7.208 7.208 0 0033 25.792V7.208A7.208 7.208 0 0025.792 0H7.208zm5.658 13.668v8.914h-2.96v-8.914h2.96zm.195-2.757c0 .856-.642 1.54-1.675 1.54h-.019c-.994 0-1.636-.684-1.636-1.54 0-.875.662-1.54 1.675-1.54s1.636.665 1.655 1.54zm4.404 11.671h-2.96s.038-8.078 0-8.914h2.96v1.262c.393-.607 1.098-1.471 2.668-1.471 1.948 0 3.408 1.274 3.408 4.012v5.111h-2.96v-4.768c0-1.199-.429-2.016-1.5-2.016-.818 0-1.305.551-1.519 1.084-.078.19-.097.456-.097.723v4.977z" fill="#A8B7F0"/></svg><svg fill="none" viewBox="0 0 33 33" id="instagram" xmlns="http://www.w3.org/2000/svg"><path fill-rule="evenodd" clip-rule="evenodd" d="M0 7.208A7.208 7.208 0 017.208 0h18.584A7.208 7.208 0 0133 7.208v18.584A7.208 7.208 0 0125.792 33H7.208A7.208 7.208 0 010 25.792V7.208zm13.754 9.334a2.752 2.752 0 115.504-.001 2.752 2.752 0 01-5.504.001zm-1.488 0a4.24 4.24 0 108.479.002 4.24 4.24 0 00-8.479-.002zm7.655-4.408a.992.992 0 10.991-.99.991.991 0 00-.991.99zm-6.751 11.13c-.805-.037-1.242-.171-1.533-.285a2.566 2.566 0 01-.95-.617 2.547 2.547 0 01-.617-.95c-.113-.29-.247-.728-.284-1.533-.04-.87-.048-1.132-.048-3.337s.009-2.466.048-3.337c.037-.805.172-1.242.284-1.533.15-.386.329-.66.618-.95.288-.289.563-.468.95-.617.29-.114.727-.248 1.532-.285.87-.04 1.132-.048 3.335-.048 2.204 0 2.465.01 3.336.048.805.037 1.241.172 1.533.284.385.15.66.33.95.618.289.289.467.564.617.95.113.29.247.728.284 1.533.04.871.048 1.132.048 3.337s-.008 2.466-.048 3.337c-.037.805-.172 1.243-.284 1.534-.15.385-.329.66-.617.949a2.566 2.566 0 01-.95.617c-.29.114-.728.248-1.533.285-.87.04-1.132.047-3.336.047-2.204 0-2.465-.008-3.335-.047zm-.068-14.93c-.88.041-1.48.18-2.004.384a4.049 4.049 0 00-1.462.953c-.46.459-.742.92-.952 1.463-.205.524-.344 1.125-.384 2.004-.04.88-.05 1.162-.05 3.404 0 2.243.01 2.524.05 3.405.04.879.18 1.479.384 2.004.21.543.492 1.004.952 1.463.459.458.919.74 1.462.952.525.204 1.125.343 2.004.384.88.04 1.161.05 3.403.05s2.523-.01 3.403-.05c.88-.04 1.48-.18 2.004-.384a4.061 4.061 0 001.462-.952c.46-.46.741-.92.953-1.463.204-.525.344-1.125.383-2.004.04-.881.05-1.162.05-3.405 0-2.242-.01-2.524-.05-3.404-.04-.88-.18-1.48-.384-2.004a4.06 4.06 0 00-.952-1.463 4.04 4.04 0 00-1.461-.953c-.526-.204-1.126-.344-2.004-.383-.88-.04-1.162-.05-3.403-.05-2.242 0-2.524.01-3.404.05z" fill="#A8B7F0"/></svg><svg fill="currentColor" viewBox="0 0 16 16" id="play" xmlns="http://www.w3.org/2000/svg"><path d="M4.156 13.75c-.192 0-.38-.05-.547-.146a1.229 1.229 0 01-.608-1.073V3.47c0-.45.233-.86.608-1.073a1.098 1.098 0 011.118.014l7.745 4.636a1.126 1.126 0 010 1.907L4.726 13.59a1.11 1.11 0 01-.57.16z"/></svg><svg fill="none" viewBox="0 0 24 24" id="share" xmlns="http://www.w3.org/2000/svg"><g clip-path="url(#hclip0_4981_70885)"><path d="M14 9V5l7 7-7 7v-4.1c-5 0-8.5 1.6-11 5.1 1-5 4-10 11-11z" fill="#fff"/></g><defs><clipPath id="hclip0_4981_70885"><path fill="#fff" transform="matrix(-1 0 0 1 24 0)" d="M0 0h24v24H0z"/></clipPath></defs></svg><svg fill="none" viewBox="0 0 17 12" id="tick" xmlns="http://www.w3.org/2000/svg"><path d="M15.667 1l-9.584 9.583L1.5 6" stroke="#A8B7F0" stroke-width="2" stroke-linecap="round" stroke-linejoin="round"/></svg><svg fill="none" viewBox="0 0 33 33" id="twitter" xmlns="http://www.w3.org/2000/svg"><path fill-rule="evenodd" clip-rule="evenodd" d="M7.208 0A7.208 7.208 0 000 7.208v18.584A7.208 7.208 0 007.208 33h18.584A7.208 7.208 0 0033 25.792V7.208A7.208 7.208 0 0025.792 0H7.208zm15.778 11.762a6.897 6.897 0 001.704-.487c.043-.018.061-.03.07-.024a.412.412 0 01-.088.323 6.734 6.734 0 01-1.345 1.403l-.045.031c-.072.049-.159.106-.159.193 0 2.784-.713 5.564-2.743 7.58-2.581 2.569-6.452 3.267-9.892 2.318a9.372 9.372 0 01-2.508-1.137c-.043-.04-.082-.083-.043-.102.039-.02.074-.024.227 0a6.697 6.697 0 002.86-.37l.134-.045c.54-.182 1.483-.5 1.731-.954l.024-.024c-.085-.019-.165-.026-.242-.033a2.38 2.38 0 01-.15-.018c-.917-.266-2.167-.745-2.743-2.313-.035-.09 0-.141.094-.122.437.06.88.046 1.313-.039-.152-.03-.3-.076-.443-.137a3.559 3.559 0 01-2.194-2.84 2.313 2.313 0 010-.392c.004-.094.047-.121.125-.07.418.213.873.34 1.34.372a6.44 6.44 0 01-.427-.372c-1.018-.969-1.414-2.93-.6-4.169.067-.094.11-.094.193 0 1.873 2.13 4.165 3.122 6.958 3.534.07.011.07 0 .07-.083a3.773 3.773 0 01.036-1.45c.128-.502.362-.97.686-1.373a3.693 3.693 0 011.128-.957c.444-.227.929-.36 1.426-.392a3.386 3.386 0 011.5.247c.353.156.678.366.965.623.062.058.121.12.176.185a.141.141 0 00.141.035 8.617 8.617 0 002.018-.784.094.094 0 01.09 0c.018.013.012.035.006.056a.115.115 0 00-.006.03c-.119.37-.305.714-.549 1.015-.16.2-.564.695-.838.742z" fill="#A8B7F0"/></svg><svg fill="none" viewBox="0 0 33 33" id="youtube" xmlns="http://www.w3.org/2000/svg"><path fill-rule="evenodd" clip-rule="evenodd" d="M7.207 0A7.208 7.208 0 000 7.208v18.584A7.208 7.208 0 007.207 33h18.584a7.208 7.208 0 007.208-7.208V7.208A7.208 7.208 0 0025.79 0H7.207zm18.418 11.792a2.363 2.363 0 00-1.664-1.668c-1.466-.393-7.349-.393-7.349-.393s-5.88 0-7.349.393a2.362 2.362 0 00-1.664 1.668c-.392 1.47-.392 4.539-.392 4.539s0 3.069.392 4.539c.216.81.853 1.449 1.664 1.668 1.47.393 7.35.393 7.35.393s5.882 0 7.348-.393a2.363 2.363 0 001.664-1.668c.392-1.47.392-4.539.392-4.539s0-3.069-.392-4.539zm-10.85 7.49l4.866-2.883-4.865-2.884v5.767z" fill="#A8B7F0"/></svg></svg>