<svg width="83" height="12" viewBox="0 0 83 12" fill="none" xmlns="http://www.w3.org/2000/svg">
<path d="M4.56 0.139999L6.256 0.139999L10.672 11.5L8.784 11.5L7.584 8.412L3.2 8.412L2.016 11.5L0.112 11.5L4.56 0.139999ZM7.232 7.084L5.408 2.108L3.52 7.084L7.232 7.084ZM14.8639 11.66C14.1599 11.66 13.4932 11.548 12.8639 11.324C12.2345 11.0893 11.6959 10.7427 11.2479 10.284L11.9039 9.1C12.3839 9.52667 12.8639 9.836 13.3439 10.028C13.8345 10.22 14.3199 10.316 14.7999 10.316C15.2905 10.316 15.6905 10.2253 15.9999 10.044C16.3092 9.852 16.4639 9.57467 16.4639 9.212C16.4639 8.94533 16.3839 8.748 16.2239 8.62C16.0639 8.492 15.8292 8.38 15.5199 8.284C15.2212 8.188 14.8585 8.08133 14.4319 7.964C13.8345 7.78267 13.3332 7.596 12.9279 7.404C12.5225 7.20133 12.2185 6.956 12.0159 6.668C11.8132 6.38 11.7119 6.012 11.7119 5.564C11.7119 5.02 11.8505 4.556 12.1279 4.172C12.4052 3.788 12.7892 3.49467 13.2799 3.292C13.7812 3.08933 14.3572 2.988 15.0079 2.988C15.6159 2.988 16.1759 3.084 16.6879 3.276C17.2105 3.45733 17.6692 3.74533 18.0639 4.14L17.3119 5.308C16.9385 4.96667 16.5545 4.716 16.1599 4.556C15.7759 4.396 15.3599 4.316 14.9119 4.316C14.6559 4.316 14.4105 4.348 14.1759 4.412C13.9412 4.46533 13.7439 4.572 13.5839 4.732C13.4345 4.88133 13.3599 5.09467 13.3599 5.372C13.3599 5.596 13.4239 5.77733 13.5519 5.916C13.6799 6.05467 13.8719 6.172 14.1279 6.268C14.3839 6.364 14.6985 6.47067 15.0719 6.588C15.7225 6.78 16.2772 6.972 16.7359 7.164C17.1945 7.34533 17.5465 7.58533 17.7919 7.884C18.0479 8.172 18.1759 8.572 18.1759 9.084C18.1759 9.89467 17.8719 10.5293 17.2639 10.988C16.6665 11.436 15.8665 11.66 14.8639 11.66ZM26.9964 11.66C26.2924 11.66 25.6257 11.548 24.9964 11.324C24.367 11.0893 23.8284 10.7427 23.3804 10.284L24.0364 9.1C24.5164 9.52667 24.9964 9.836 25.4764 10.028C25.967 10.22 26.4524 10.316 26.9324 10.316C27.423 10.316 27.823 10.2253 28.1324 10.044C28.4417 9.852 28.5964 9.57467 28.5964 9.212C28.5964 8.94533 28.5164 8.748 28.3564 8.62C28.1964 8.492 27.9617 8.38 27.6524 8.284C27.3537 8.188 26.991 8.08133 26.5644 7.964C25.967 7.78267 25.4657 7.596 25.0604 7.404C24.655 7.20133 24.351 6.956 24.1484 6.668C23.9457 6.38 23.8444 6.012 23.8444 5.564C23.8444 5.02 23.983 4.556 24.2604 4.172C24.5377 3.788 24.9217 3.49467 25.4124 3.292C25.9137 3.08933 26.4897 2.988 27.1404 2.988C27.7484 2.988 28.3084 3.084 28.8204 3.276C29.343 3.45733 29.8017 3.74533 30.1964 4.14L29.4444 5.308C29.071 4.96667 28.687 4.716 28.2924 4.556C27.9084 4.396 27.4924 4.316 27.0444 4.316C26.7884 4.316 26.543 4.348 26.3084 4.412C26.0737 4.46533 25.8764 4.572 25.7164 4.732C25.567 4.88133 25.4924 5.09467 25.4924 5.372C25.4924 5.596 25.5564 5.77733 25.6844 5.916C25.8124 6.05467 26.0044 6.172 26.2604 6.268C26.5164 6.364 26.831 6.47067 27.2044 6.588C27.855 6.78 28.4097 6.972 28.8684 7.164C29.327 7.34533 29.679 7.58533 29.9244 7.884C30.1804 8.172 30.3084 8.572 30.3084 9.084C30.3084 9.89467 30.0044 10.5293 29.3964 10.988C28.799 11.436 27.999 11.66 26.9964 11.66ZM35.8317 11.66C35.1811 11.66 34.5891 11.548 34.0557 11.324C33.5331 11.0893 33.0797 10.7747 32.6957 10.38C32.3117 9.97467 32.0131 9.516 31.7997 9.004C31.5971 8.48133 31.4957 7.92667 31.4957 7.34C31.4957 6.55067 31.6771 5.83067 32.0397 5.18C32.4024 4.51867 32.9091 3.99067 33.5597 3.596C34.2104 3.19067 34.9731 2.988 35.8477 2.988C36.7224 2.988 37.4744 3.19067 38.1037 3.596C38.7437 3.99067 39.2397 4.51333 39.5918 5.164C39.9438 5.81467 40.1198 6.51333 40.1198 7.26C40.1198 7.388 40.1144 7.51067 40.1038 7.628C40.0931 7.73467 40.0824 7.82533 40.0717 7.9L33.3677 7.9C33.3997 8.39067 33.5331 8.82267 33.7677 9.196C34.0131 9.55867 34.3224 9.84667 34.6957 10.06C35.0691 10.2627 35.4691 10.364 35.8957 10.364C36.3651 10.364 36.8077 10.2467 37.2237 10.012C37.6504 9.77733 37.9384 9.468 38.0877 9.084L39.5918 9.516C39.4104 9.92133 39.1331 10.2893 38.7597 10.62C38.3971 10.94 37.9651 11.196 37.4637 11.388C36.9624 11.5693 36.4184 11.66 35.8317 11.66ZM33.3197 6.732L38.3757 6.732C38.3437 6.252 38.2051 5.83067 37.9597 5.468C37.7251 5.09467 37.4211 4.80667 37.0477 4.604C36.6851 4.39067 36.2797 4.284 35.8317 4.284C35.3944 4.284 34.9891 4.39067 34.6157 4.604C34.2531 4.80667 33.9544 5.09467 33.7197 5.468C33.4851 5.83067 33.3517 6.252 33.3197 6.732ZM45.5074 11.66C44.8567 11.66 44.2647 11.548 43.7314 11.324C43.2087 11.0893 42.7554 10.7747 42.3714 10.38C41.9874 9.97467 41.6887 9.516 41.4754 9.004C41.2727 8.48133 41.1714 7.92667 41.1714 7.34C41.1714 6.55067 41.3527 5.83067 41.7154 5.18C42.078 4.51867 42.5847 3.99067 43.2354 3.596C43.886 3.19067 44.6487 2.988 45.5234 2.988C46.398 2.988 47.15 3.19067 47.7794 3.596C48.4194 3.99067 48.9154 4.51333 49.2674 5.164C49.6194 5.81467 49.7954 6.51333 49.7954 7.26C49.7954 7.388 49.79 7.51067 49.7794 7.628C49.7687 7.73467 49.758 7.82533 49.7474 7.9L43.0434 7.9C43.0754 8.39067 43.2087 8.82267 43.4434 9.196C43.6887 9.55867 43.998 9.84667 44.3714 10.06C44.7447 10.2627 45.1447 10.364 45.5714 10.364C46.0407 10.364 46.4834 10.2467 46.8994 10.012C47.326 9.77733 47.614 9.468 47.7634 9.084L49.2674 9.516C49.086 9.92133 48.8087 10.2893 48.4354 10.62C48.0727 10.94 47.6407 11.196 47.1394 11.388C46.638 11.5693 46.094 11.66 45.5074 11.66ZM42.9954 6.732L48.0514 6.732C48.0194 6.252 47.8807 5.83067 47.6354 5.468C47.4007 5.09467 47.0967 4.80667 46.7234 4.604C46.3607 4.39067 45.9554 4.284 45.5074 4.284C45.07 4.284 44.6647 4.39067 44.2914 4.604C43.9287 4.80667 43.63 5.09467 43.3954 5.468C43.1607 5.83067 43.0274 6.252 42.9954 6.732ZM58.895 11.5L57.135 11.5L57.135 6.812C57.135 6.03333 57.007 5.46267 56.751 5.1C56.5057 4.73733 56.1377 4.556 55.647 4.556C55.3057 4.556 54.9643 4.64133 54.623 4.812C54.2923 4.98267 53.9937 5.21733 53.727 5.516C53.4603 5.804 53.2683 6.14 53.151 6.524L53.151 11.5L51.391 11.5L51.391 3.132L52.991 3.132L52.991 4.812C53.2043 4.43867 53.4817 4.11867 53.823 3.852C54.175 3.57467 54.5697 3.36133 55.007 3.212C55.4443 3.06267 55.9083 2.988 56.399 2.988C56.9003 2.988 57.311 3.07867 57.631 3.26C57.9617 3.44133 58.2177 3.692 58.399 4.012C58.591 4.32133 58.719 4.684 58.783 5.1C58.8577 5.50533 58.895 5.93733 58.895 6.396L58.895 11.5ZM68.971 11.66C68.3097 11.66 67.7177 11.548 67.195 11.324C66.6723 11.0893 66.219 10.7693 65.835 10.364C65.4617 9.95867 65.1737 9.5 64.971 8.988C64.7683 8.46533 64.667 7.91067 64.667 7.324C64.667 6.73733 64.7683 6.18267 64.971 5.66C65.1737 5.13733 65.4617 4.67867 65.835 4.284C66.219 3.87867 66.6723 3.564 67.195 3.34C67.7283 3.10533 68.3203 2.988 68.971 2.988C69.6217 2.988 70.2083 3.10533 70.731 3.34C71.2643 3.564 71.7177 3.87867 72.091 4.284C72.475 4.67867 72.7683 5.13733 72.971 5.66C73.1737 6.18267 73.275 6.73733 73.275 7.324C73.275 7.91067 73.1737 8.46533 72.971 8.988C72.7683 9.5 72.475 9.95867 72.091 10.364C71.7177 10.7693 71.2643 11.0893 70.731 11.324C70.2083 11.548 69.6217 11.66 68.971 11.66ZM66.475 7.34C66.475 7.87333 66.587 8.35333 66.811 8.78C67.035 9.20667 67.3337 9.54267 67.707 9.788C68.0803 10.0333 68.5017 10.156 68.971 10.156C69.4297 10.156 69.8457 10.0333 70.219 9.788C70.603 9.532 70.907 9.19067 71.131 8.764C71.355 8.32667 71.467 7.84667 71.467 7.324C71.467 6.79067 71.355 6.31067 71.131 5.884C70.907 5.45733 70.603 5.12133 70.219 4.876C69.8457 4.62 69.4297 4.492 68.971 4.492C68.5017 4.492 68.0803 4.62 67.707 4.876C67.3337 5.132 67.035 5.47333 66.811 5.9C66.587 6.316 66.475 6.796 66.475 7.34ZM82.5 11.5L80.74 11.5L80.74 6.812C80.74 6.03333 80.612 5.46267 80.356 5.1C80.1107 4.73733 79.7427 4.556 79.252 4.556C78.9107 4.556 78.5693 4.64133 78.228 4.812C77.8973 4.98267 77.5987 5.21733 77.332 5.516C77.0653 5.804 76.8733 6.14 76.756 6.524L76.756 11.5L74.996 11.5L74.996 3.132L76.596 3.132L76.596 4.812C76.8093 4.43867 77.0867 4.11867 77.428 3.852C77.78 3.57467 78.1747 3.36133 78.612 3.212C79.0493 3.06267 79.5133 2.988 80.004 2.988C80.5053 2.988 80.916 3.07867 81.236 3.26C81.5667 3.44133 81.8227 3.692 82.004 4.012C82.196 4.32133 82.324 4.684 82.388 5.1C82.4627 5.50533 82.5 5.93733 82.5 6.396L82.5 11.5Z" fill="#181F3E"/>
</svg>
