<svg width="95" height="29" viewBox="0 0 95 29" fill="none" xmlns="http://www.w3.org/2000/svg">
<path d="M14.2153 0C6.2967 0 0 6.46534 0 14.3408C0 22.3026 6.2967 28.7695 14.2153 28.7695C22.1757 28.7695 28.388 22.3038 28.388 14.3434C28.3893 6.46785 22.1757 0 14.2153 0ZM14.2153 6.08727C20.681 6.08727 25.4175 10.1933 27.4191 14.3434C25.4175 18.5567 20.681 22.6823 14.2153 22.6823C7.7079 22.6823 3.00932 18.5554 1.00911 14.3434C3.00932 10.1947 7.70925 6.08978 14.2153 6.08978V6.08727V6.08727ZM14.2153 6.73992C10.0033 6.73992 6.56923 10.149 6.56923 14.3408C6.56923 18.596 10.0033 21.9869 14.2153 21.9869C18.4274 21.9869 21.8163 18.5958 21.8163 14.3434C21.8163 10.1515 18.4274 6.73992 14.2153 6.73992Z" fill="#181F3E"/>
<path d="M41.9753 1.70801C34.5406 1.70801 29.359 7.35179 29.359 14.2164V14.2992C29.359 21.2488 34.6461 26.7474 41.7871 26.7474C46.4412 26.7474 49.222 25.0827 51.7074 22.4072L48.3161 18.9984C46.4197 20.7236 44.7118 21.8424 41.9527 21.8424C37.8041 21.8424 34.9191 18.3637 34.9191 14.2164V14.1536C34.9191 10.005 37.8674 6.61296 41.9527 6.61296C44.3748 6.61296 46.2706 7.64522 48.1454 9.3516L51.5367 5.43316C49.2831 3.22269 46.5459 1.70801 41.9753 1.70801Z" fill="#181F3E"/>
<path d="M53.7174 2.12646V26.3224H65.2368C70.6902 26.3224 74.2911 24.1139 74.2911 19.6929V19.6076C74.2911 16.3647 72.5662 14.7413 69.7627 13.6684C71.4906 12.7007 72.9431 11.1847 72.9431 8.44718V8.38442C72.9431 6.71848 72.3949 5.37115 71.2789 4.25513C69.8906 2.88706 67.721 2.12646 64.9606 2.12646H53.7174ZM58.896 6.7804H64.1624C66.416 6.7804 67.6566 7.68583 67.6566 9.26551V9.35086C67.6566 11.1408 66.1622 11.8987 63.8034 11.8987L58.896 11.9012V6.78039V6.7804ZM58.896 16.3242H65.0686C67.7832 16.3242 69.0046 17.336 69.0046 18.9574V19.0403C69.0046 20.8302 67.5739 21.6509 65.2368 21.6509L58.896 21.6534V16.3242V16.3242Z" fill="#181F3E"/>
<path d="M84.7302 1.76978C79.8025 1.76978 76.2658 4.6751 76.2658 9.07449V9.13976C76.2658 13.9435 79.4227 15.2921 84.2884 16.5348C88.332 17.5862 89.1733 18.2595 89.1733 19.6073V19.6927C89.1733 21.1025 87.8452 21.9669 85.6766 21.9669C82.8959 21.9669 80.6222 20.8275 78.4522 19.0375L75.2943 22.8079C78.2003 25.3984 81.9063 26.6636 85.5711 26.6636V26.661C90.794 26.661 94.4573 23.9639 94.4573 19.1656V19.1028C94.4573 14.8705 91.6785 13.1189 86.771 11.8357C82.6021 10.7601 81.5473 10.235 81.5473 8.65529V8.59253C81.5473 7.41316 82.6216 6.46638 84.6649 6.46638C86.7083 6.46638 88.8146 7.37021 90.9631 8.86364L93.7218 4.84479C91.2781 2.88636 88.2683 1.76978 84.7302 1.76978Z" fill="#181F3E"/>
</svg>
