<svg width="31" height="30" viewBox="0 0 31 30" fill="none" xmlns="http://www.w3.org/2000/svg">
<path d="M15.3889 2.25919C14.9272 1.10644 13.8024 -0.138526 11.6959 0.0324777C9.01256 0.324203 8.17633 2.89579 8.58178 4.42997C7.5131 3.70627 5.69576 3.38802 4.10952 4.74676C2.06149 6.7998 3.15696 9.57623 4.28282 10.2422C3.04198 10.1273 1.08094 10.9658 0.647091 13.159C0.185562 15.8821 2.26147 17.4696 4.28282 17.4696H26.6977C29.0352 17.4696 30.3321 15.4475 30.1866 13.5404C29.9572 11.0515 27.6797 10.0965 26.4373 10.3011C27.4753 9.72206 28.8617 7.00172 26.7537 4.86315C25.0805 3.27163 22.9473 3.85065 22.1973 4.54484C22.6017 3.21529 21.9387 0.466959 19.2247 0.0322166C19.0373 0.0112262 18.8566 0 18.6845 0C16.6127 0.00020886 15.6812 1.5146 15.3889 2.25919Z" fill="#181F3E"/>
<path d="M4.48175 5.18118C3.2983 6.25247 2.86758 8.67984 5.00092 10.0988L13.5116 15.9378L9.385 6.48378C8.52032 4.25285 6.15477 3.76636 4.48175 5.18118Z" fill="#F37021"/>
<path d="M11.8089 0.582494C10.4256 0.610638 8.34829 2.25807 9.27276 4.77369L13.5406 14.8392L15.0404 4.25222C15.3874 1.62157 13.3966 0.407208 11.8089 0.582494Z" fill="#CC004C"/>
<path d="M15.7069 3.85062H16.5138C16.5138 3.85062 16.9448 3.85062 17.0035 4.05389C16.6859 4.31324 15.8214 4.34572 15.9361 5.73109L17.2929 14.84L21.5317 4.74799C22.3987 2.49465 20.5788 0.612767 18.9644 0.555227C18.889 0.549796 18.8133 0.54541 18.7351 0.54541C17.286 0.545358 15.6256 1.59843 15.7069 3.85062Z" fill="#6460AA"/>
<path d="M21.3597 6.56799L17.3503 15.9085L25.8586 10.0388C27.8199 8.64766 27.5035 6.42361 26.4057 5.32433C25.9454 4.80693 25.1004 4.40723 24.2052 4.40723C23.1476 4.40707 22.0158 4.96802 21.3597 6.56799Z" fill="#0089D0"/>
<path d="M24.905 11.3682L16.9147 16.9493H26.7529C28.7713 16.9493 30.0685 14.868 29.4919 12.9583C29.1057 11.7579 27.963 10.8156 26.6368 10.8142C26.0786 10.8145 25.4866 10.9826 24.905 11.3682Z" fill="#0DB14B"/>
<path d="M4.2543 16.9497H13.9474L5.95515 11.3686C4.10883 10.1822 2.0326 10.8764 1.28311 12.845C0.647809 15.0986 2.23405 16.9497 4.2543 16.9497Z" fill="#FCB711"/>
<path d="M14.9871 24.5858H16.7853C17.1986 24.6118 17.9314 24.9727 17.9314 25.8274C17.9314 26.7214 17.1709 27.0821 16.7589 27.1228H14.9871V24.5858ZM14.9597 20.6059H16.4398C16.9457 20.6332 17.5439 21.0071 17.5439 21.7012C17.5439 22.382 17.0916 22.8358 16.5065 22.9166H14.9597V20.6059ZM12.9362 18.9497V28.7773H17.7046C18.8365 28.7773 20.1819 27.643 20.1819 26.1607C20.1819 24.612 19.1701 23.8514 18.5299 23.544C18.5299 23.544 19.7021 22.8632 19.65 21.3939C19.5967 19.4176 17.771 18.9497 17.1451 18.9497H12.9362Z" fill="#181F3E"/>
<path d="M5.62378 28.7756V23.1152L11.8045 29.1495V18.948H9.72756V24.4636L3.54541 18.5483V28.7756H5.62378Z" fill="#181F3E"/>
<path d="M20.516 23.7567C20.5681 26.8646 22.8011 29.1881 25.6718 29.1881C26.3524 29.1881 27.0695 29.0593 27.8023 28.7769V26.7745C27.2215 27.1294 26.5753 27.3005 25.9421 27.3005C24.2049 27.3005 22.5657 26.015 22.6336 23.6769C22.7506 21.7802 24.3034 20.4706 25.9767 20.4706C26.5895 20.4706 27.2198 20.6471 27.8023 21.0328V19.084C27.1231 18.8087 26.448 18.6855 25.7976 18.6855C22.9342 18.6855 20.571 21.1009 20.516 23.7567Z" fill="#181F3E"/>
</svg>
