<svg width="66" height="28" viewBox="0 0 66 28" fill="none" xmlns="http://www.w3.org/2000/svg">
<path d="M8.32719 7.63042V11.26H15.9988V18.8493H8.32719V27.8406H0.449219V0H17.1949L17.7311 7.63042H8.32719Z" fill="#181F3E"/>
<path d="M40.2221 4.2795C42.8356 6.94724 44.1431 10.1676 44.1431 13.9399C44.1431 17.7396 42.8355 20.9731 40.2221 23.6412C37.6081 26.3088 34.4555 27.6426 30.7639 27.6426C27.0453 27.6426 23.8786 26.3088 21.2652 23.6412C18.6511 20.9732 17.3444 17.7396 17.3444 13.9399C17.3444 10.1675 18.6511 6.94724 21.2652 4.2795C23.8786 1.61176 27.0453 0.277832 30.7639 0.277832C34.4554 0.277832 37.6081 1.61176 40.2221 4.2795ZM28.5003 19.5179C28.5003 20.1383 28.729 20.6769 29.1875 21.1349C29.6453 21.5933 30.198 21.8221 30.8447 21.8221C31.4915 21.8221 32.0371 21.5933 32.4818 21.1349C32.9265 20.6769 33.1488 20.1383 33.1488 19.5179V8.24068C33.1488 7.59402 32.9265 7.04196 32.4818 6.58348C32.0372 6.12568 31.4916 5.89632 30.8447 5.89632C30.198 5.89632 29.6454 6.12568 29.1875 6.58348C28.7289 7.04196 28.5003 7.59402 28.5003 8.24068V19.5179Z" fill="#181F3E"/>
<path d="M56.4342 27.9234L52.4749 20.8702L48.6391 27.9234H39.9775L48.2267 13.4873L40.4312 0H49.3403L52.5988 6.02184L55.8983 0H64.5184L56.888 13.4047L65.3022 27.9233H56.4342V27.9234Z" fill="#181F3E"/>
</svg>
