<svg width="29" height="29" viewBox="0 0 29 29" fill="none" xmlns="http://www.w3.org/2000/svg">
<path fill-rule="evenodd" clip-rule="evenodd" d="M0 14.452C0 6.44988 6.43104 0 14.4368 0C22.4419 0 28.8679 6.44988 28.8679 14.452C28.8679 22.4541 22.4419 28.904 14.4368 28.904C6.43133 28.904 0 22.4541 0 14.452ZM0.27607 14.4536C0.27607 11.9455 2.2909 9.92247 4.80205 9.92247V9.9224C7.31319 9.9224 9.32802 11.9454 9.32802 14.4535V18.8864H6.94678V17.8961C6.94678 17.8961 6.34402 18.9847 4.80205 18.9847C2.2909 18.9847 0.27607 16.9617 0.27607 14.4536ZM6.95898 14.4536C6.95898 13.2569 5.99927 12.2915 4.80205 12.2915C3.60482 12.2915 2.64511 13.2569 2.64511 14.4536C2.64511 15.6504 3.60482 16.6158 4.80205 16.6158C5.99927 16.6158 6.95898 15.6504 6.95898 14.4536ZM9.9035 6.80146V14.4529C9.9035 16.961 11.9199 18.9856 14.431 18.9856C16.9421 18.9856 18.9533 16.9609 18.9533 14.4529C18.9533 11.9448 16.9421 9.9202 14.431 9.9202C12.889 9.9202 12.2842 11.0118 12.2842 11.0118V6.80131L9.9035 6.80146ZM14.431 12.2906C15.6282 12.2906 16.5882 13.2562 16.5882 14.453C16.5882 15.6498 15.6283 16.6154 14.431 16.6154C13.2338 16.6154 12.2738 15.6498 12.2738 14.453C12.2738 13.2562 13.2338 12.2906 14.431 12.2906ZM19.3423 14.4536C19.3423 11.9455 21.3571 9.92247 23.8683 9.92247L23.8682 9.9224C26.0375 9.9224 27.836 11.4324 28.2856 13.4604H25.7873C25.4293 12.7663 24.7064 12.2914 23.8683 12.2914C22.671 12.2914 21.7113 13.2567 21.7113 14.4535C21.7113 15.6503 22.671 16.6156 23.8683 16.6156C24.7039 16.6156 25.423 16.1425 25.7821 15.4518H28.2856C27.8342 17.4773 26.0358 18.9847 23.8683 18.9847C21.3571 18.9847 19.3423 16.9617 19.3423 14.4536Z" fill="#181F3E"/>
</svg>
